<?xml version="1.0" standalone="no"?>
<!DOCTYPE svg PUBLIC "-//W3C//DTD SVG 20010904//EN"
 "http://www.w3.org/TR/2001/REC-SVG-20010904/DTD/svg10.dtd">
<svg version="1.0" xmlns="http://www.w3.org/2000/svg"
 width="1200.000000pt" height="1553.000000pt" viewBox="0 0 1200.000000 1553.000000"
 preserveAspectRatio="xMidYMid meet">

<g transform="translate(0.000000,1553.000000) scale(0.100000,-0.100000)"
fill="#64B5F6" stroke="none">
<path d="M4829 13328 c-100 -14 -172 -67 -218 -160 l-31 -61 0 -1233 c0 -678
-4 -1235 -8 -1238 -7 -4 -797 487 -1817 1130 -137 87 -266 164 -285 171 -54
19 -158 16 -208 -7 -77 -35 -110 -70 -190 -199 -116 -185 -852 -1362 -1052
-1681 -95 -151 -180 -291 -188 -310 -8 -20 -15 -66 -15 -105 0 -61 4 -79 33
-133 18 -35 49 -75 69 -91 20 -15 167 -109 326 -208 271 -169 1316 -821 1789
-1117 115 -72 209 -135 209 -141 0 -5 -69 -54 -154 -107 -200 -127 -1331 -834
-1749 -1094 -380 -236 -450 -285 -483 -337 -54 -83 -59 -194 -14 -284 14 -26
153 -253 309 -503 157 -250 410 -655 563 -900 468 -750 438 -708 522 -750 56
-28 148 -37 208 -21 22 6 112 55 200 110 88 55 205 127 260 162 55 34 145 90
200 124 167 104 428 266 465 290 76 49 811 506 842 523 18 11 59 35 90 55 31
21 62 37 68 37 7 0 10 -380 10 -1232 0 -1403 -7 -1291 85 -1383 92 -92 -22
-85 1400 -85 1166 0 1253 1 1300 17 69 25 136 93 164 166 l21 58 0 1230 c0
1025 2 1230 13 1226 8 -3 478 -295 1045 -650 876 -548 1040 -647 1087 -657 93
-19 186 6 257 71 35 31 71 86 243 364 34 55 178 285 320 510 648 1031 749
1193 773 1244 21 46 24 63 20 130 -7 121 -53 185 -194 272 -87 54 -1019 637
-1244 779 -926 582 -985 619 -985 631 0 8 854 544 1982 1244 168 105 327 209
353 232 89 80 120 219 73 323 -20 45 -126 218 -333 545 -88 138 -527 844 -891
1431 -114 183 -174 227 -309 227 -95 0 -103 -4 -400 -192 -215 -136 -1291
-810 -1642 -1029 -81 -51 -152 -92 -158 -92 -6 0 -11 421 -12 1248 l-3 1247
-30 54 c-31 56 -76 99 -135 128 -33 17 -116 18 -1271 23 -680 3 -1256 2 -1280
-2z m1398 -2769 c109 -52 167 -146 167 -269 0 -123 -58 -216 -168 -270 -121
-60 -255 -38 -351 56 -172 168 -80 466 158 514 62 12 124 2 194 -31z m-987
-81 c132 -41 179 -168 186 -499 3 -171 6 -204 25 -255 63 -171 174 -244 423
-282 48 -7 49 -8 66 -58 21 -65 63 -137 95 -162 16 -13 21 -21 12 -24 -22 -9
-557 -6 -557 2 0 4 21 26 48 48 l47 41 -120 -34 c-66 -19 -125 -34 -132 -35
-7 0 -38 15 -70 33 -32 19 -104 60 -160 91 -57 32 -103 61 -103 65 0 3 36 28
80 54 44 27 80 50 80 52 0 2 -24 -3 -52 -11 -29 -7 -88 -21 -130 -29 l-78 -16
-170 97 -171 97 28 16 c15 9 58 32 95 51 37 19 65 36 64 38 -4 3 -97 -13 -263
-45 -111 -21 -372 -24 -458 -4 -204 46 -272 117 -196 204 58 65 510 298 892
460 282 119 397 142 519 105z m1965 -5 c79 -19 118 -33 321 -119 285 -121 744
-353 825 -417 78 -62 73 -130 -13 -173 -104 -52 -188 -68 -373 -67 -148 0
-191 4 -335 32 -90 17 -169 31 -175 30 -5 0 35 -23 90 -51 87 -44 97 -52 82
-63 -10 -7 -87 -52 -172 -100 l-154 -86 -78 15 c-43 9 -102 23 -130 30 -29 8
-53 13 -53 11 0 -2 36 -24 80 -50 44 -26 82 -50 84 -54 2 -3 -70 -48 -162 -99
-188 -106 -145 -100 -334 -48 -49 13 -88 22 -88 21 0 -1 21 -18 46 -38 25 -19
46 -39 47 -44 1 -4 -125 -9 -280 -10 -156 -1 -283 2 -283 6 0 4 14 20 31 37
35 33 72 100 88 162 10 35 16 42 37 42 51 0 181 32 240 59 103 48 169 120 210
231 12 34 18 101 24 270 5 140 14 244 23 275 56 197 172 254 402 198z m-1236
-533 c87 -34 137 -35 222 -6 92 32 125 33 134 6 16 -51 -36 -125 -109 -155
-48 -20 -173 -23 -234 -6 -79 22 -145 106 -127 161 8 26 48 26 114 0z m-2251
-138 c34 -114 198 -190 446 -206 50 -4 92 -8 94 -11 12 -11 -329 -149 -543
-218 -297 -97 -477 -145 -730 -197 -310 -64 -568 -88 -751 -70 -228 21 -372
78 -491 195 -40 39 -73 76 -73 82 0 6 26 14 58 18 163 20 798 135 1112 201
391 83 762 186 824 230 32 22 42 17 54 -24z m4881 -1 c163 -69 531 -162 1009
-255 210 -41 779 -141 865 -151 31 -4 57 -12 57 -17 0 -18 -64 -89 -115 -127
-113 -86 -252 -133 -444 -151 -192 -19 -455 7 -806 80 -358 74 -943 263 -1172
378 l-55 28 124 12 c68 6 149 18 181 27 132 34 229 107 243 182 7 39 3 40 113
-6z m-2432 -90 c51 -23 73 -63 73 -128 0 -60 -31 -169 -71 -250 -49 -100 -84
-104 -131 -16 -37 68 -78 206 -78 260 0 122 96 184 207 134z m-1556 -207 c87
-53 159 -100 159 -105 0 -13 -172 -124 -306 -199 -247 -136 -548 -246 -844
-309 -236 -50 -574 -65 -771 -36 -159 24 -321 86 -373 144 -17 19 -17 20 31
25 656 80 1345 277 1814 521 57 29 110 54 117 54 7 1 85 -42 173 -95z m3272
40 c484 -244 1213 -456 1766 -514 46 -5 86 -11 89 -14 16 -17 -122 -95 -222
-125 -238 -73 -624 -67 -991 14 -243 53 -553 170 -786 296 -99 54 -309 188
-309 197 0 9 312 200 328 201 7 1 63 -24 125 -55z m-2835 -259 c83 -55 152
-105 152 -110 0 -17 -184 -128 -360 -217 -278 -142 -542 -245 -736 -288 -126
-28 -314 -31 -424 -6 -76 17 -260 99 -260 116 0 5 26 13 58 20 227 43 521 130
675 199 38 17 73 31 79 31 35 0 454 227 603 327 27 18 52 32 56 31 3 -2 74
-48 157 -103z m2345 57 c370 -249 899 -467 1301 -536 49 -9 91 -17 93 -19 9
-10 -105 -72 -180 -98 -303 -105 -644 -31 -1241 268 -165 82 -365 200 -366
216 0 6 307 215 318 217 2 0 35 -22 75 -48z m-1814 -197 c107 -8 196 -17 198
-19 2 -2 -7 -16 -20 -31 l-23 -28 -155 2 c-304 3 -530 -73 -754 -252 -44 -36
-100 -90 -125 -120 -38 -48 -50 -57 -87 -63 -45 -7 -145 7 -207 29 l-37 13 78
33 c93 41 709 352 808 409 39 22 84 40 100 41 17 0 117 -6 224 -14z m1394 -41
c136 -76 614 -318 752 -381 l110 -51 -60 -18 c-33 -9 -94 -18 -135 -18 l-75
-1 -95 96 c-151 154 -316 250 -521 305 -93 24 -124 28 -289 30 l-184 3 -29 30
-30 29 64 6 c104 10 290 23 342 25 42 1 63 -7 150 -55z m-927 11 c14 -21 16
-41 11 -103 -3 -42 -11 -92 -17 -110 l-12 -33 -36 42 c-44 51 -146 119 -179
119 -31 0 -29 20 5 53 39 38 89 56 154 57 51 0 60 -3 74 -25z m291 0 c28 -14
59 -37 68 -51 15 -23 14 -25 -2 -30 -54 -16 -129 -63 -177 -111 l-54 -55 -16
71 c-19 82 -20 119 -5 158 14 37 25 43 85 43 34 0 66 -8 101 -25z m-674 -111
c84 -19 151 -51 224 -105 85 -63 104 -123 58 -177 -89 -106 -304 -144 -449
-78 -72 32 -135 34 -211 5 -66 -25 -104 -60 -149 -142 -95 -172 -86 -335 25
-468 47 -57 183 -151 249 -172 184 -61 333 -82 774 -112 326 -22 437 -47 621
-136 129 -62 223 -134 296 -226 109 -137 159 -273 159 -430 0 -209 -117 -402
-316 -523 l-54 -32 -52 40 c-81 62 -175 113 -261 143 -43 15 -80 29 -83 31 -2
3 22 12 54 22 92 29 211 96 267 150 70 69 85 121 61 209 -48 173 -183 276
-424 322 -46 9 -193 19 -360 25 -409 14 -612 44 -847 127 -208 74 -363 187
-488 356 -110 147 -136 416 -62 637 49 148 153 293 259 364 226 150 503 216
709 170z m1164 1 c206 -39 434 -155 524 -267 135 -166 191 -323 191 -533 0
-200 -49 -327 -180 -466 -66 -70 -264 -219 -292 -219 -5 0 -24 14 -42 31 -56
51 -169 116 -258 148 -47 17 -92 35 -100 40 -9 5 -42 14 -73 21 -31 7 -57 16
-57 20 0 4 21 11 47 15 69 10 256 78 320 117 172 102 256 255 232 424 -26 187
-154 322 -316 332 -52 4 -71 0 -120 -24 -77 -37 -204 -45 -284 -19 -167 55
-231 147 -158 229 59 68 203 142 309 159 59 10 184 6 257 -8z m-672 -328 c10
-21 35 -53 57 -71 l39 -34 -11 -358 c-5 -197 -12 -360 -15 -362 -6 -7 -122 -4
-192 4 l-53 6 0 360 0 360 39 44 c22 25 52 74 67 110 l29 65 11 -43 c6 -24 19
-60 29 -81z m-800 -1311 c39 -10 119 -26 179 -35 l109 -17 -74 -36 c-102 -51
-185 -121 -223 -188 -26 -47 -31 -65 -31 -125 0 -59 5 -78 28 -117 55 -94 187
-169 383 -219 99 -25 157 -32 349 -44 250 -15 340 -29 461 -70 249 -85 408
-239 460 -445 21 -83 14 -230 -15 -313 -46 -131 -132 -251 -209 -291 -30 -16
-32 -15 -64 12 -55 47 -126 92 -199 126 l-69 32 54 23 c84 35 140 83 171 146
24 49 27 64 23 128 -6 91 -35 154 -100 212 -93 84 -162 97 -603 115 -329 13
-463 37 -621 110 -214 99 -358 257 -409 450 -20 73 -19 236 1 314 17 68 53
135 127 243 l49 71 77 -32 c42 -18 108 -41 146 -50z m779 -93 l78 -6 -6 -146
c-3 -80 -9 -217 -12 -304 l-6 -159 -103 4 c-57 1 -106 5 -108 8 -3 3 -9 141
-13 308 l-7 302 50 0 c27 0 85 -3 127 -7z m-751 -983 c53 -31 135 -56 229 -70
l87 -12 -47 -38 c-91 -73 -133 -140 -140 -224 -6 -76 13 -131 63 -185 84 -90
221 -136 445 -152 211 -14 286 -25 375 -53 247 -78 404 -269 405 -489 0 -91
-20 -169 -63 -247 -34 -60 -171 -204 -206 -215 -16 -5 -42 3 -89 28 -37 20
-94 45 -126 57 l-59 22 83 44 c103 53 141 89 176 168 22 47 28 76 27 126 0 77
-18 123 -67 178 -67 74 -179 102 -411 102 -343 0 -563 67 -711 215 -149 150
-199 352 -135 543 17 51 115 222 126 222 2 0 19 -9 38 -20z m800 -352 c-3
-145 -6 -268 -8 -273 -4 -15 -165 -2 -174 14 -5 7 -11 92 -15 189 -3 98 -9
212 -12 255 l-7 77 110 0 110 0 -4 -262z m-603 -608 c25 -10 68 -21 95 -25 80
-11 79 -9 35 -73 -100 -147 -105 -290 -13 -392 70 -78 184 -123 379 -150 226
-30 406 -127 476 -257 95 -174 28 -418 -150 -546 -50 -36 -50 -36 -73 -16 -12
10 -46 31 -76 45 -29 15 -53 28 -53 29 0 2 22 17 50 35 70 45 147 132 161 182
14 52 4 119 -26 178 -46 89 -111 125 -250 135 -249 17 -368 45 -477 111 -80
49 -161 143 -211 243 -42 84 -42 85 -42 200 0 128 14 186 67 279 23 41 34 52
47 46 9 -3 36 -15 61 -24z m606 -63 c1 -1 -3 -119 -10 -262 l-11 -260 -70 3
c-38 2 -73 6 -78 11 -4 4 -10 124 -14 266 l-6 258 94 -7 c51 -4 94 -8 95 -9z
m-344 -802 c51 -11 51 -14 5 -59 -60 -58 -82 -124 -68 -200 13 -73 41 -124 90
-169 51 -46 84 -63 202 -102 113 -38 176 -72 240 -131 144 -136 156 -387 25
-540 -34 -40 -147 -109 -167 -102 -6 2 13 30 41 62 28 32 63 81 78 109 24 47
27 63 27 152 0 92 -2 104 -29 153 -38 67 -101 114 -191 142 -39 11 -106 32
-151 46 -137 43 -265 142 -313 244 -23 49 -26 67 -26 165 0 120 15 181 60 247
l25 37 60 -24 c32 -13 74 -26 92 -30z m307 -44 c13 -8 13 -41 3 -232 -6 -122
-13 -223 -14 -225 -2 -1 -28 4 -59 13 l-56 15 -7 121 c-3 66 -6 164 -6 219 l0
98 63 0 c34 0 68 -4 76 -9z m-234 -631 c22 -11 47 -20 57 -20 26 0 22 -12 -15
-41 -17 -14 -43 -48 -57 -75 -22 -43 -25 -62 -25 -149 0 -126 27 -202 99 -282
38 -42 44 -53 29 -53 -27 0 -102 50 -140 93 -125 142 -135 321 -29 502 15 25
30 45 34 45 4 0 25 -9 47 -20z m218 -69 c5 -5 1 -193 -7 -417 -9 -225 -16
-439 -16 -476 0 -52 -3 -68 -14 -68 -20 0 -23 42 -36 435 -6 182 -13 379 -17
439 l-6 109 44 -7 c24 -4 48 -11 52 -15z"/>
<path d="M5652 8928 c-7 -7 -12 -22 -12 -35 0 -27 42 -42 65 -23 28 23 11 70
-25 70 -9 0 -21 -5 -28 -12z"/>
<path d="M6504 8926 c-3 -8 -4 -25 -2 -38 2 -18 9 -23 32 -23 36 0 56 27 40
53 -14 22 -62 28 -70 8z"/>
</g>
</svg>
